<?xml version="1.0" encoding="utf-8"?>
<!-- Generator: Adobe Illustrator 23.0.3, SVG Export Plug-In . SVG Version: 6.00 Build 0)  -->
<svg version="1.1" id="Vrstva_1" xmlns="http://www.w3.org/2000/svg" xmlns:xlink="http://www.w3.org/1999/xlink" x="0px" y="0px"
	 viewBox="0 0 595.3 595.3" style="enable-background:new 0 0 595.3 595.3;" xml:space="preserve">
<style type="text/css">
	.st0{fill:#E1B761;}
</style>
<g>
	<g>
		<g>
			<path d="M349.3,472.7c0-10.4,5.9-15.1,13.8-15.1c7.5,0,11.3,4.6,10.9,13.6h-18.5v0.8c0,8.6,2,13.1,8.5,13.1c4.8,0,7.5-3,8.4-7.3
				l1.7,0.2c-1,4.9-4,9-11.5,9C353.5,487.2,349.3,481.4,349.3,472.7 M368.1,469.6c0.4-6.5-1-10.5-5.5-10.5c-4.4,0-6.6,3.8-7,10.5
				H368.1z M359.9,453.8l0.9,0.5l6.3-7.5c0.7-0.9,1.2-1.6,1.2-2.4c0-1.4-0.9-1.9-2-1.9c-0.2,0-0.5,0-0.8,0.1l-1.4,0.3L359.9,453.8z"
				/>
			<rect x="392.1" y="469.6" width="21.7" height="2.5"/>
			<rect x="181.5" y="469.6" width="21.7" height="2.5"/>
			<path d="M223.4,471.9c0,9,2.5,13.2,8.1,13.2c5.8,0,7.7-4.3,8.3-7.9l1.7,0.3c-0.7,3.6-2.5,9.6-11.4,9.6c-8.3,0-13-5.1-13-14.2
				c0-10.2,5.8-15.3,14.2-15.3c6.4,0,9.9,2.9,9.9,7.6c0,3-1.5,4.3-3.6,4.3c-2,0-3.5-1.3-3.5-3.6c0-0.6,0.1-1.4,0.3-2.2h1.6
				c0.1-0.5,0.2-1,0.2-1.4c0-2.1-1.4-3.3-4.6-3.3C226,459.1,223.4,463.1,223.4,471.9"/>
			<path d="M279.6,472.3V468c0-5.4-1.2-8.9-6.2-8.9c-2.3,0-4.8,0.7-4.8,2.7c0,0.2,0.1,0.5,0.1,0.8h1.7c0.3,0.8,0.5,1.6,0.5,2.3
				c0,2.1-1.4,3.4-3.4,3.4c-2,0-3.1-1.5-3.1-3.8c0-4.4,4.8-6.9,10.3-6.9c7.1,0,10.6,2.7,10.6,11.3V481c0,2.4,0.7,3.3,2,3.3
				c1.5,0,2.3-0.8,2.7-5.6l1.4,0.1c-0.2,5.9-2,8.4-6.1,8.4c-3.2,0-5.1-1.5-5.5-4.3c-1.5,2.7-4.6,4.3-8.3,4.3c-4.5,0-8.3-1.8-8.3-6.9
				c0-6,5.2-7.9,12.8-7.9H279.6z M279.6,479.1v-5.2h-2.2c-6.1,0-8,2.9-8,6.4c0,2.9,1.3,4.7,4.2,4.7
				C276.7,484.9,279.6,482.7,279.6,479.1"/>
			<path d="M328.8,459.8h-7.3V485h7.1v1.5h-17.3V485h4.5v-25.2h-4.6v-1.5h4.6v-3.5c0-8.7,3.3-14.2,11.2-14.2c4.2,0,7.7,2.1,7.7,6.2
				c0,2.4-1.2,4-3.4,4c-2.1,0-3.5-1.1-3.5-3.2c0-0.6,0.1-1.3,0.4-2.1h1.6c0.1-0.4,0.1-0.8,0.1-1.1c0-1.5-1-2.3-3.3-2.3
				c-4.5,0-5.1,4-5.1,8.3v8h7.3V459.8z"/>
		</g>
		<path class="st0" d="M434.4,288.8h-14.4V128.2c0-2.9-1.7-5.4-4.4-6.5c-2.7-1.1-5.7-0.5-7.7,1.5l-55.5,55.5l-50.7-68.5
			c-2-2.7-6.4-2.7-8.4,0l-50.7,68.5l-55.5-55.5c-2-2-5.1-2.6-7.7-1.5c-2.7,1.1-4.4,3.7-4.4,6.5v160.7h-14.4c-3.9,0-7.1,3.2-7.1,7.1
			c0,3.9,3.2,7.1,7.1,7.1h42.9c3.9,0,7.1-3.2,7.1-7.1c0-3.9-3.2-7.1-7.1-7.1h-14.4v-81.1l69.6,67.2l-17.3,17.3
			c-1.5,1.5-1.9,3.7-1.1,5.7c0.8,2,2.7,3.2,4.8,3.2H350c2.1,0,4-1.3,4.8-3.2c0.8-2,0.4-4.2-1.1-5.7l-16.8-16.8l-0.5-0.5l69.6-67.2
			v81.1h-14.4c-3.9,0-7.1,3.2-7.1,7.1c0,3.9,3.2,7.1,7.1,7.1h42.9c3.9,0,7.1-3.2,7.1-7.1C441.5,292,438.3,288.8,434.4,288.8
			 M297.6,122l47.4,64.1l-47.4,47.4l-47.4-47.4L297.6,122z M189.3,188v-42.8l99.6,99.6l-20,20L189.3,188z M337.4,290.7h-79.5
			l39.7-39.7L337.4,290.7z M405.9,188l-79.6,76.8l-20-20l99.6-99.6V188z"/>
		<g>
			<path d="M35.1,357v53.7l8.1,3v1.5H24v-1.5l8.1-3v-63.3l-6.1-1.5v-1.5h12.7c3.5,0,6.3,0.7,8.4,2.2c2.1,1.5,3.8,3.6,5.3,6.4
				l22.1,42.3l16.9-42.3c1.1-3,2.7-5.2,4.7-6.5c2-1.4,5-2.1,9-2.1h10.6v1.5l-6.1,1.5v64.9l6.1,1.5v1.5H86.8v-1.5l6.1-1.5V357
				l-23.8,59.3h-3L35.1,357z"/>
			<path d="M120.8,413.7l8.1-3l27.9-67.4h3l28.9,68.9l5.1,1.5v1.5h-12.2c-3.5,0-6.4-0.8-8.6-2.4c-2.2-1.6-3.9-3.7-5-6.2l-5.2-12.2
				h-24.2l-6.7,16.2l7.6,3v1.5h-18.8V413.7z M139.6,391.9h22.2l-11.2-26.7L139.6,391.9z"/>
			<path d="M264.7,413.7l6.1-1.5v-64.9l-6.1-1.5v-1.5h54.2v18.2h-3c-1.3-1-2.4-2.3-3.3-3.9c-2.2-3.6-3.2-7.6-3.2-11.9h-21.8v31.9
				h11.7c0.5-2.6,1.3-5,2.6-7.2c0.5-1,1.2-2,1.9-2.9h3v22.8h-3c-0.7-0.9-1.4-1.9-1.9-2.9c-1.3-2.2-2.2-4.6-2.6-7.2h-11.7v31.4h23.8
				c0-4.3,1.1-8.2,3.2-11.9c0.9-1.6,2.1-2.8,3.3-3.9h3v18.2h-56.3V413.7z"/>
			<path d="M346.5,413.5c-1.9-0.9-3.5-2.1-4.8-3.3c-0.9,1.6-2.1,2.9-3.5,4.2c-1.2,0.9-1.9,1.4-2,1.4h-2.5v-19.3h4.1
				c1,3.3,2.4,6.3,4.3,8.9c4.1,5.9,9.5,8.8,16,8.8c3.9,0,6.9-1.1,9.2-3.4c2.3-2.3,3.4-5.4,3.4-9.2c0-2.2-0.7-4.2-2-6
				c-1.3-1.8-3-3.3-4.9-4.7c-2-1.4-4.7-3-8.2-5.1c-4.5-2.5-8.1-4.8-10.8-6.8c-2.8-2-5.1-4.6-7.1-7.7c-2-3.1-2.9-6.7-2.9-10.9
				c0-3.3,0.9-6.3,2.8-9c1.9-2.7,4.6-4.8,8.4-6.4c3.7-1.6,8.3-2.4,13.7-2.4c3.9,0,7.8,1.1,11.8,3.3c1.5,0.8,3,1.9,4.5,3.2
				c1.1-1.8,2.3-3.1,3.5-4.2c1.2-0.9,1.9-1.4,2-1.4h2.5v19.3h-4.1c-0.9-3.2-2.2-6.2-4-8.8c-1.6-2.6-3.6-4.7-6-6.4
				c-2.4-1.7-5.2-2.5-8.3-2.5c-2.6,0-4.9,1-6.8,3.1c-1.9,2.1-2.8,4.8-2.8,8c0,2.5,0.7,4.7,2.2,6.7c1.5,2,3.2,3.7,5.4,5.2
				c2.1,1.5,5,3.3,8.7,5.4c4.3,2.4,7.7,4.6,10.3,6.5c2.6,1.9,4.9,4.2,6.7,7c1.8,2.8,2.7,6,2.7,9.7c0,3.6-1,7-3.1,10
				c-2.1,3-5.2,5.4-9.4,7.1c-4.2,1.8-9.3,2.6-15.3,2.6C355.2,416.8,350.7,415.7,346.5,413.5"/>
			<path d="M413.2,413.7l6.1-1.5v-65.4h-11.7c0,4.1-1.1,8.1-3.3,11.9c-0.9,1.6-2,2.8-3.2,3.9h-3v-18.2h59.3v18.2h-3
				c-1.3-1-2.4-2.3-3.3-3.9c-2.2-3.6-3.2-7.6-3.2-11.9H436v65.4l6.1,1.5v1.5h-28.9V413.7z"/>
			<polygon points="469.9,415.3 469.9,413.7 476,412.2 476,347.3 469.9,345.8 469.9,344.3 498.8,344.3 498.8,345.8 492.8,347.3 
				492.8,412.2 498.8,413.7 498.8,415.3 			"/>
			<path d="M522.7,407.1c-6.1-6.4-9.1-15.5-9.1-27.4c0-7.8,1.3-14.4,4-20c2.7-5.6,6.4-9.8,11.3-12.7c4.8-2.9,10.4-4.3,16.8-4.3
				c3.9,0,7.7,1.1,11.7,3.3c1.5,0.8,3,1.9,4.5,3.2c1.2-1.8,2.3-3.1,3.5-4.2c1.2-0.9,1.9-1.3,2-1.4h2.5v19.3h-4.1
				c-0.9-3.2-2.2-6.2-4-8.8c-1.6-2.6-3.6-4.7-6-6.4c-2.4-1.7-5.2-2.5-8.3-2.5c-4.7,0-8.5,2.7-11.6,8.1c-3.1,5.4-4.6,14.2-4.6,26.4
				c0,12.4,1.7,21.2,5,26.5c3.3,5.3,7.9,8,13.7,8c3.2,0,6.2-0.9,9.1-2.7c2.9-1.8,5.2-4.2,7-7.1c1.8-3,2.7-6.1,2.7-9.4h2.5
				c0,3.9-1,7.5-3.1,10.8c-2.1,3.3-4.9,6-8.4,8c-3.6,2-7.5,3-11.8,3C537.2,416.8,528.7,413.6,522.7,407.1"/>
			<polyline points="227.7,347.3 221.6,345.8 221.6,344.3 250.5,344.3 250.5,345.8 244.4,347.3 			"/>
			<path d="M244.4,347.3v47.7c-0.1,2-0.6,10.4-7.2,16.9c-1.6,1.6-3.3,2.8-4.9,3.7c-2.9,1.6-6.2,2.5-9.6,2.5
				c-12.9,0-16.3-2.5-19.2-4.5c-3.1-2.2-4.7-4.8-4.7-7.9c0-2.3,0.7-4.1,2.1-5.5c1.4-1.4,3.2-2.1,5.5-2.1c0.5,0,1.1,0,1.6,0.2
				c0.5,0.1,0.9,0.2,1.1,0.2l1.3,0.2v15.2c0.5,0.3,0.9,0.4,1.4,0.5c1.1,0.3,2.4,0.5,3.7,0.5c8.1,0,12.2-6.6,12.2-19.8v-47.7"/>
		</g>
	</g>
</g>
</svg>
