<svg id="Group_62" data-name="Group 62" xmlns="http://www.w3.org/2000/svg" xmlns:xlink="http://www.w3.org/1999/xlink" width="156.409" height="108.321" viewBox="0 0 156.409 108.321">
  <defs>
    <clipPath id="clip-path">
      <rect id="Rectangle_3" data-name="Rectangle 3" width="156.409" height="108.321" fill="none"/>
    </clipPath>
  </defs>
  <g id="Group_1" data-name="Group 1" clip-path="url(#clip-path)">
    <path id="Path_1" data-name="Path 1" d="M807.232,838.128c0-2.977,1.684-4.3,3.947-4.3,2.145,0,3.215,1.31,3.114,3.879h-5.274v.239c0,2.45.562,3.741,2.416,3.741a2.342,2.342,0,0,0,2.4-2.074l.494.068a3,3,0,0,1-3.3,2.585c-2.62,0-3.8-1.649-3.8-4.134m5.359-.884c.1-1.856-.273-3.012-1.564-3.012-1.26,0-1.873,1.071-1.991,3.012Zm-2.348-4.509.254.136,1.787-2.144a1.163,1.163,0,0,0,.34-.7.51.51,0,0,0-.579-.545.945.945,0,0,0-.221.018l-.408.085Z" transform="translate(-714.252 -733.942)"/>
    <rect id="Rectangle_1" data-name="Rectangle 1" width="6.209" height="0.722" transform="translate(105.193 103.302)"/>
    <rect id="Rectangle_2" data-name="Rectangle 2" width="6.207" height="0.722" transform="translate(45.007 103.302)"/>
    <path id="Path_2" data-name="Path 2" d="M481.036,871.221c0,2.585.716,3.776,2.314,3.776a2.333,2.333,0,0,0,2.365-2.245l.494.085a2.993,2.993,0,0,1-3.25,2.756c-2.364,0-3.708-1.464-3.708-4.067,0-2.926,1.65-4.372,4.066-4.372,1.821,0,2.84.833,2.84,2.161,0,.867-.441,1.242-1.036,1.242a.944.944,0,0,1-.988-1.038,2.292,2.292,0,0,1,.086-.629h.459a1.643,1.643,0,0,0,.051-.391c0-.6-.407-.937-1.309-.937-1.65,0-2.382,1.14-2.382,3.659" transform="translate(-424.048 -767.272)"/>
    <path id="Path_3" data-name="Path 3" d="M598.37,871.357v-1.243c0-1.547-.357-2.552-1.769-2.552-.664,0-1.362.188-1.362.767a1.339,1.339,0,0,0,.034.238h.477a1.862,1.862,0,0,1,.135.664.91.91,0,0,1-.97.969c-.561,0-.883-.425-.883-1.072,0-1.259,1.36-1.974,2.943-1.974,2.04,0,3.028.766,3.028,3.215v3.454c0,.7.2.935.579.935.425,0,.664-.237.766-1.6l.39.036c-.067,1.7-.577,2.4-1.751,2.4a1.391,1.391,0,0,1-1.566-1.224,2.58,2.58,0,0,1-2.364,1.224c-1.276,0-2.366-.51-2.366-1.973,0-1.718,1.5-2.262,3.659-2.262Zm0,1.923v-1.5h-.629c-1.753,0-2.3.817-2.3,1.821,0,.833.374,1.343,1.208,1.343a1.658,1.658,0,0,0,1.718-1.666" transform="translate(-525.308 -767.272)"/>
    <path id="Path_4" data-name="Path 4" d="M717.612,830.263h-2.076v7.213h2.042v.442h-4.951v-.442H713.9v-7.213h-1.328v-.443H713.9v-.987c0-2.483.935-4.065,3.214-4.065,1.192,0,2.195.611,2.195,1.768,0,.7-.357,1.14-.969,1.14a.877.877,0,0,1-.987-.918,2.069,2.069,0,0,1,.1-.6h.46a1.162,1.162,0,0,0,.032-.323c0-.426-.288-.663-.951-.663-1.293,0-1.463,1.139-1.463,2.365v2.279h2.076Z" transform="translate(-630.499 -729.768)"/>
    <path id="Path_5" data-name="Path 5" d="M402.2,51.646h-4.1V5.731a2.021,2.021,0,0,0-3.451-1.43L378.79,20.159,364.308.572a1.549,1.549,0,0,0-2.4,0L347.423,20.159,331.566,4.3a2.022,2.022,0,0,0-3.452,1.43V51.646h-4.1a2.022,2.022,0,1,0,0,4.044H336.26a2.022,2.022,0,1,0,0-4.044h-4.1V28.458l19.883,19.2-4.952,4.953a1.493,1.493,0,0,0,1.056,2.55h29.924a1.494,1.494,0,0,0,1.057-2.55l-4.8-4.805-.147-.147,19.882-19.2V51.646h-4.1a2.022,2.022,0,0,0,0,4.044H402.2a2.022,2.022,0,1,0,0-4.044m-39.1-47.673L376.653,22.3,363.107,35.842,349.561,22.3ZM332.158,22.837V10.612L360.62,39.075l-5.72,5.72Zm42.3,29.332h-22.71l11.353-11.356Zm19.593-29.332L371.312,44.794l-5.72-5.721,28.463-28.462Z" transform="translate(-284.902 0)" fill="#cea068"/>
    <path id="Path_6" data-name="Path 6" d="M3.186,589.59v15.351l2.318.869v.435H0v-.435l2.317-.869v-18.1L.579,586.4v-.435H4.2a4.076,4.076,0,0,1,2.39.623,5.077,5.077,0,0,1,1.52,1.839l6.315,12.078,4.837-12.078a3.928,3.928,0,0,1,1.333-1.868,4.488,4.488,0,0,1,2.576-.594h3.042v.435l-1.738.435v18.537l1.738.434v.435H17.959v-.435l1.737-.434V589.59l-6.807,16.945h-.869Z" transform="translate(0 -518.475)"/>
    <path id="Path_7" data-name="Path 7" d="M240.147,603.584l2.318-.87,7.965-19.262h.869l8.256,19.7,1.448.434v.435h-3.476a4.151,4.151,0,0,1-2.463-.682,4.072,4.072,0,0,1-1.418-1.781l-1.478-3.475h-6.923l-1.912,4.633,2.173.87v.435h-5.359Zm5.388-6.228h6.344l-3.186-7.617Z" transform="translate(-212.486 -516.249)"/>
    <path id="Path_8" data-name="Path 8" d="M597.232,605.81l1.737-.434V586.838l-1.737-.434v-.435h15.5v5.214h-.87a4.117,4.117,0,0,1-.955-1.1,6.521,6.521,0,0,1-.927-3.388H603.75v9.123h3.331a6.393,6.393,0,0,1,.753-2.057,5.8,5.8,0,0,1,.549-.839h.87v6.516h-.87a5.736,5.736,0,0,1-.549-.839,6.393,6.393,0,0,1-.753-2.056H603.75v8.979h6.807a6.525,6.525,0,0,1,.926-3.389,4.111,4.111,0,0,1,.956-1.1h.87v5.214H597.232Z" transform="translate(-528.441 -518.475)"/>
    <path id="Path_9" data-name="Path 9" d="M771.914,602.415a5.131,5.131,0,0,1-1.361-.955,4.922,4.922,0,0,1-1.014,1.188q-.521.377-.579.405h-.723v-5.5h1.159a9.157,9.157,0,0,0,1.215,2.549,5.368,5.368,0,0,0,4.576,2.519,3.391,3.391,0,0,0,3.622-3.62,2.782,2.782,0,0,0-.566-1.71,5.99,5.99,0,0,0-1.406-1.332q-.84-.579-2.346-1.448a31.208,31.208,0,0,1-3.1-1.941,8.009,8.009,0,0,1-2.028-2.186,5.675,5.675,0,0,1-.839-3.114,4.371,4.371,0,0,1,.8-2.562,5.393,5.393,0,0,1,2.389-1.826,9.949,9.949,0,0,1,3.91-.681,6.747,6.747,0,0,1,3.36.956,6.668,6.668,0,0,1,1.275.927,5.324,5.324,0,0,1,1.013-1.187q.521-.376.58-.406h.724v5.5h-1.159a8.5,8.5,0,0,0-1.129-2.521,6.366,6.366,0,0,0-1.724-1.824,4.005,4.005,0,0,0-2.361-.724,2.527,2.527,0,0,0-1.94.9,3.282,3.282,0,0,0-.811,2.288,3.189,3.189,0,0,0,.622,1.926,6.455,6.455,0,0,0,1.534,1.492q.913.638,2.477,1.534,1.824,1.045,2.954,1.855a7.462,7.462,0,0,1,1.912,2.012,4.97,4.97,0,0,1,.782,2.767,4.878,4.878,0,0,1-.9,2.853,5.994,5.994,0,0,1-2.694,2.043,11.317,11.317,0,0,1-4.374.752,8.266,8.266,0,0,1-3.852-.927" transform="translate(-679.748 -515.138)"/>
    <path id="Path_10" data-name="Path 10" d="M932.258,605.81l1.738-.434V586.694h-3.331a6.576,6.576,0,0,1-.956,3.388,4.407,4.407,0,0,1-.927,1.1h-.868v-5.214h16.944v5.214h-.869a4.094,4.094,0,0,1-.956-1.1,6.529,6.529,0,0,1-.927-3.388h-3.33v18.682l1.737.434v.435h-8.255Z" transform="translate(-821.034 -518.475)"/>
    <path id="Path_11" data-name="Path 11" d="M1106.446,606.251v-.435l1.737-.434V586.844l-1.737-.434v-.434h8.255v.434l-1.738.434v18.538l1.738.434v.435Z" transform="translate(-979.001 -518.481)"/>
    <path id="Path_12" data-name="Path 12" d="M1217.187,600.591q-2.605-2.751-2.606-7.821a13.12,13.12,0,0,1,1.144-5.721,8.178,8.178,0,0,1,3.215-3.62,9.19,9.19,0,0,1,4.793-1.232,7.266,7.266,0,0,1,4.605,1.883,5.371,5.371,0,0,1,1.014-1.188c.347-.251.541-.386.58-.406h.724v5.5H1229.5a8.493,8.493,0,0,0-1.13-2.519,6.342,6.342,0,0,0-1.723-1.826,4,4,0,0,0-2.36-.724q-2,0-3.317,2.318t-1.318,7.531q0,5.3,1.433,7.574a4.428,4.428,0,0,0,3.925,2.274,4.814,4.814,0,0,0,2.592-.767,6.04,6.04,0,0,0,2-2.041,5.141,5.141,0,0,0,.767-2.7h.724a5.781,5.781,0,0,1-.882,3.086,6.525,6.525,0,0,1-2.4,2.288,6.771,6.771,0,0,1-3.374.856,9.493,9.493,0,0,1-7.242-2.753" transform="translate(-1074.68 -515.138)"/>
    <path id="Path_13" data-name="Path 13" d="M492.1,586.844l-1.737-.434v-.434h8.255v.434l-1.737.434" transform="translate(-433.877 -518.481)" fill="#fff"/>
    <path id="Path_14" data-name="Path 14" d="M446.809,593.514v13.641a7.194,7.194,0,0,1-2.069,4.835,6.7,6.7,0,0,1-1.4,1.05,5.6,5.6,0,0,1-2.74.712c-3.683,0-4.645-.723-5.477-1.3a2.7,2.7,0,0,1-1.347-2.26,2.044,2.044,0,0,1,2.173-2.172,2.546,2.546,0,0,1,.464.043,2.07,2.07,0,0,0,.317.045l.377.057v4.345a1.15,1.15,0,0,0,.405.145,3.7,3.7,0,0,0,1.043.144q3.475,0,3.475-5.648V593.514" transform="translate(-383.81 -525.151)"/>
  </g>
</svg>
